<svg xmlns="http://www.w3.org/2000/svg" viewBox="0 0 64 64" width="64" height="64" class="ds-whale-error" aria-label="DSH 进程停止或异常">
  <style>
    @keyframes dsWhaleErrorBreathe {
      0%, 100% {
        -webkit-transform: translateY(0px) rotate(0deg);
        transform: translateY(0px) rotate(0deg);
      }
      50% {
        -webkit-transform: translateY(-1px) rotate(-0.4deg);
        transform: translateY(-1px) rotate(-0.4deg);
      }
    }
    @-webkit-keyframes dsWhaleErrorBreathe {
      0%, 100% {
        -webkit-transform: translateY(0px) rotate(0deg);
        transform: translateY(0px) rotate(0deg);
      }
      50% {
        -webkit-transform: translateY(-1px) rotate(-0.4deg);
        transform: translateY(-1px) rotate(-0.4deg);
      }
    }
    @keyframes dsWhaleErrorTailWag {
      0%, 100% {
        -webkit-transform: rotate(-6deg);
        transform: rotate(-6deg);
      }
      50% {
        -webkit-transform: rotate(6deg);
        transform: rotate(6deg);
      }
    }
    @-webkit-keyframes dsWhaleErrorTailWag {
      0%, 100% {
        -webkit-transform: rotate(-6deg);
        transform: rotate(-6deg);
      }
      50% {
        -webkit-transform: rotate(6deg);
        transform: rotate(6deg);
      }
    }
    @keyframes dsWaterErrorRipple {
      0%, 100% {
        opacity: 0.35;
        -webkit-transform: scaleX(0.9);
        transform: scaleX(0.9);
      }
      50% {
        opacity: 0.8;
        -webkit-transform: scaleX(1.08);
        transform: scaleX(1.08);
      }
    }
    @-webkit-keyframes dsWaterErrorRipple {
      0%, 100% {
        opacity: 0.35;
        -webkit-transform: scaleX(0.9);
      }
      50% {
        opacity: 0.8;
        -webkit-transform: scaleX(1.08);
      }
    }
    .whale-error-swim-group {
      -webkit-animation: dsWhaleErrorBreathe 3s ease-in-out infinite;
      animation: dsWhaleErrorBreathe 3s ease-in-out infinite;
    }
    .whale-error-tail-rotor {
      -webkit-animation: dsWhaleErrorTailWag 2s cubic-bezier(0.45, 0.05, 0.55, 0.95) infinite;
      animation: dsWhaleErrorTailWag 2s cubic-bezier(0.45, 0.05, 0.55, 0.95) infinite;
    }
    .water-error-line-ripple {
      -webkit-transform-origin: 32px 55px;
      transform-origin: 32px 55px;
      -webkit-animation: dsWaterErrorRipple 2.5s ease-in-out infinite;
      animation: dsWaterErrorRipple 2.5s ease-in-out infinite;
    }
  </style>

  <!-- Water Surface Line Ripples (Error Red) -->
  <g class="water-error-line-ripple">
    <path d="M12 55 C22 53.5 42 53.5 52 55" fill="none" stroke="#DA3633" stroke-width="1.6" stroke-linecap="round" opacity="0.45" />
    <path d="M18 58 C26 57 38 57 46 58" fill="none" stroke="#F85149" stroke-width="1.3" stroke-linecap="round" opacity="0.75" />
  </g>

  <!-- DeepSeek Whale (Error Red Line Art) -->
  <g class="whale-error-swim-group">
    <!-- Official Whale Body Outer Contour (Line Art) -->
    <path d="M44.8,26.4L49.6,26.4L49.6,31.2L48.0,31.2L48.0,36.0L46.4,36.0L46.4,39.2L44.8,39.2L44.8,42.4L46.4,42.4L46.4,44.0L48.0,44.0L48.0,47.2L36.8,47.2L36.8,48.8L33.6,48.8L33.6,50.4L19.2,50.4L19.2,48.8L16.0,48.8L16.0,47.2L14.4,47.2L14.4,45.6L12.8,45.6L12.8,44.0L11.2,44.0L11.2,42.4L9.6,42.4L9.6,40.8L8.0,40.8L8.0,34.4L6.4,34.4L6.4,24.8L8.0,24.8L8.0,21.6L9.6,21.6L9.6,18.4L11.2,18.4L11.2,16.8L14.4,16.8L14.4,15.2L19.2,15.2L19.2,13.6L33.6,13.6L33.6,15.2L32.0,15.2L32.0,16.8L33.6,16.8L33.6,18.4L35.2,18.4L35.2,20.0L36.8,20.0L36.8,21.6L38.4,21.6L38.4,23.2L40.0,23.2L40.0,24.8L41.6,24.8L41.6,26.4Z"
          fill="none"
          stroke="#F85149"
          stroke-width="1.8"
          stroke-linecap="round"
          stroke-linejoin="round" />

    <!-- Whale Eye Landmark (Warning cross/pupil) -->
    <circle cx="21.4" cy="22.4" r="1.7" fill="#FFFFFF" stroke="#121212" stroke-width="0.7" />
    <circle cx="21.8" cy="22.0" r="0.55" fill="#F85149" />

    <!-- Official Whale Inner Belly Cut Arch (Line Art) -->
    <path d="M27.2,40.8L28.8,40.8L28.8,42.4L32.0,42.4L32.0,40.8L30.4,40.8L30.4,37.6L28.8,37.6L28.8,36.0L27.2,36.0L27.2,34.4L25.6,34.4L25.6,31.2L24.0,31.2L24.0,29.6L19.2,29.6L19.2,28.0L16.0,28.0L16.0,26.4L11.2,26.4L11.2,34.4L12.8,34.4L12.8,36.0L14.4,36.0L14.4,39.2L16.0,39.2L16.0,40.8L17.6,40.8L17.6,42.4L20.8,42.4L20.8,44.0L24.0,44.0L24.0,42.4L22.4,42.4L22.4,39.2L25.6,39.2L25.6,40.8Z"
          fill="none"
          stroke="#DA3633"
          stroke-width="1.4"
          stroke-linecap="round"
          stroke-linejoin="round"
          opacity="0.85" />

    <!-- Tail Fluke (Pivots at Junction 46.4, 25.6) -->
    <g transform="translate(46.4, 25.6)">
      <g class="whale-error-tail-rotor">
        <path d="M11.2,-5.6L11.2,-4.0L9.6,-4.0L9.6,-2.4L8.0,-2.4L8.0,-0.8L3.2,-0.8L3.2,0.8L-1.6,0.8L-1.6,-0.8L-3.2,-0.8L-3.2,-2.4L-4.8,-2.4L-4.8,-4.0L-6.4,-4.0L-6.4,-13.6L-3.2,-13.6L-3.2,-12.0L-1.6,-12.0L-1.6,-10.4L0.0,-10.4L0.0,-8.8L8.0,-8.8L8.0,-10.4L11.2,-10.4Z"
              fill="none"
              stroke="#F85149"
              stroke-width="1.8"
              stroke-linecap="round"
              stroke-linejoin="round" />

        <!-- Fluke Spine Detail Line -->
        <path d="M0 0 L-2.4 -9.6"
              fill="none"
              stroke="#FFA198"
              stroke-width="1.3"
              stroke-linecap="round"
              opacity="0.8" />

        <!-- SMIL Spline Fallback for WebKit 537.35+ -->
        <animateTransform attributeName="transform" type="rotate"
          values="-6; 6; -6"
          keyTimes="0; 0.5; 1"
          calcMode="spline"
          keySplines="0.45 0.05 0.55 0.95; 0.45 0.05 0.55 0.95"
          dur="2s" repeatCount="indefinite" />
      </g>
    </g>
  </g>
</svg>
